<svg xmlns="http://www.w3.org/2000/svg" width="687.419" height="631.176" xmlns:v="https://vecta.io/nano"><g fill="#f2f2f2"><path d="M611.824 594.254c.247 11.715-1.37 23.394-4.789 34.601-.12.407-.264.814-.407 1.221h-70.495c1.008-4.962 2.608-9.786 4.765-14.367 5.866-12.452 15.445-23.107 24.903-33.691 13.026-14.583 25.741-29.046 27.753-48.01a108.91 108.91 0 0 1 12.26 25.31 29.75 29.75 0 0 0-9.841 6.034c-.79.742-1.628 1.82-1.221 2.85.383.862 1.437 1.149 2.371 1.341l6.753 1.269 5.364 1.03a117.58 117.58 0 0 1 2.586 22.413z"/><path d="M671.04 586.496c-11.302 6.872-18.486 17.504-24.352 29.405a30.08 30.08 0 0 0-13.673 7.184c-.814.742-1.652 1.82-1.221 2.85.359.862 1.437 1.149 2.371 1.341l6.729 1.269-.646 1.533h-74.709a105.64 105.64 0 0 1 11.23-12.835c.886-.886 1.796-1.724 2.73-2.586a111.74 111.74 0 0 1 32.326-20.401 113.72 113.72 0 0 1 59.217-7.758z"/><path d="M577.989 630.077h-66.52a108.06 108.06 0 0 1 .096-15.995c2.915-33.339 20.285-63.73 47.531-83.162-3.448 12.284-1.676 24.496 1.916 36.756-.503.168-1.006.311-1.461.503a29.75 29.75 0 0 0-9.841 6.034c-.79.742-1.628 1.82-1.221 2.849.359.862 1.437 1.149 2.371 1.341l6.729 1.269 5.388 1.054c.838.144 1.676.311 2.514.479.12.287.192.551.311.814 4.214 11.613 8.812 23.323 10.967 35.224a82.22 82.22 0 0 1 1.102 9.027c.072 1.269.12 2.538.12 3.807z"/></g><circle cx="68.969" cy="22.514" r="22.514" fill="#fd6584"/><path d="M119.36 11.854a11.17 11.17 0 0 0-9.426-7.834c-.049-.007-.095.002-.144-.001-.063-.019-.127-.034-.192-.044-10.296-1.33-22.181 3.594-26.472 13.355-2.125-2.898-5.542-4.563-9.134-4.451-4.674.311-8.653 3.518-9.95 8.02-.138.552.097 1.13.581 1.428.68.576 1.486.985 2.352 1.194q2.805.594 5.629 1.089 5.512.965 11.081 1.56a164.79 164.79 0 0 0 22.697.858c2.523-.079 4.957-.162 7.269-1.276a10.82 10.82 0 0 0 4.17-3.639 12.27 12.27 0 0 0 1.539-10.258zM72.567 41.872a11.17 11.17 0 0 0-9.426-7.834c-.049-.007-.095.002-.144-.001-.063-.019-.127-.034-.192-.044-10.296-1.331-22.181 3.593-26.472 13.354-2.125-2.898-5.542-4.563-9.134-4.451-4.674.311-8.653 3.518-9.95 8.02-.138.552.097 1.13.581 1.428.68.576 1.486.985 2.352 1.194q2.805.594 5.629 1.089 5.512.964 11.081 1.56a164.78 164.78 0 0 0 22.697.858c2.523-.079 4.957-.162 7.269-1.276a10.82 10.82 0 0 0 4.17-3.639 12.27 12.27 0 0 0 1.539-10.258z" fill="#f0f0f0"/><g fill="#3f3d56"><path d="M289.149 391.308c-.57.835-2.068 1.83-2.652 2.652l.623-1.889-.212-.438-1.326-2.652-33.763-68.043-.013-.013-57.236-115.293v-.013l-1.313-2.639v-.013l-28.326-57.063-1.339-2.705q1.511.04 3.023.119l1.353 2.719 28.247 56.931.013.013 1.313 2.639v.013l55.776 112.363v.013l1.313 2.639v.013l33.763 67.99.451.915z"/><path d="M285.382 205.631H32.702l2.082-2.652H283.3l2.082 2.652zm32.013 112.376l-.292 2.652h-64.728v-2.652z"/><path d="M42.317 194.24v213.4l-2.652-2.931V197.171l2.652-2.931z"/><path d="M40.991 388.98h246.742v2.652H40.991z"/></g><path d="M287.518 391.308h.305v-.438c-.093.152-.194.298-.305.438zm-2.042-186.002l-2.082-2.652a158.85 158.85 0 0 0-116.686-59.662q-1.511-.08-3.023-.119l-4.549-.066c-44.341-.024-86.669 18.51-116.726 51.109-.915.968-1.79 1.949-2.652 2.931q-2.526 2.845-4.88 5.808a96.7 96.7 0 0 0-2.082 2.652c-46.22 60.256-43.302 144.804 6.962 201.73a107.87 107.87 0 0 0 2.652 2.931c32.456 35.149 79.019 53.806 126.765 50.794s91.595-27.374 119.377-66.322l1.737-2.48a157.86 157.86 0 0 0 26.907-71.624c.12-.875.212-1.764.292-2.652q.775-7.758.782-15.741a158.23 158.23 0 0 0-32.795-96.635zm29.056 115.028a155.09 155.09 0 0 1-25.595 68.905q-.537.816-1.114 1.631c-.093.152-.194.298-.305.438-.093.146-.199.292-.305.438A156.3 156.3 0 0 1 42.41 406.042c-.915-1.008-1.803-2.016-2.652-3.05-48.078-56.644-49.592-139.319-3.62-197.685l2.135-2.652a45.75 45.75 0 0 1 1.485-1.764c.849-1.034 1.737-2.042 2.652-3.05a156.04 156.04 0 0 1 116.726-52.382q2.964 0 5.888.119c1.021.027 2.029.08 3.037.133 43.634 2.494 84.229 23.146 111.938 56.944.729.875 1.432 1.764 2.135 2.652a156.51 156.51 0 0 1 32.702 112.376l-.305 2.652zm-27.013 70.974h.305v-.438c-.093.152-.195.298-.305.438z" fill="#ccc"/><g fill="#e5e5e5"><path d="M139.079 92.344q0 1.094-.071 2.169c-.265 4.136-1.31 8.184-3.079 11.931-.014.032-.03.062-.043.092l-.254.519a32.47 32.47 0 0 1-1.749 3.086c-5.925 9.286-16.091 15.007-27.104 15.253l.327 18.801 4.263-2.245.761 1.447-4.993 2.629.61 34.917.007.466-3.296.734.007-.469 1.038-56.279a32.96 32.96 0 0 1-23.318-10.146 33.26 33.26 0 0 1-.615-.656l-.023-.025c-2.517-2.745-4.553-5.895-6.021-9.318.032.037.066.071.098.107-13.622-34.233-5.697-50.103 15.678-42.608l.345-.169c15.501-7.466 34.137-1.809 42.871 13.015.201.338.396.684.583 1.031 2.617 4.825 3.984 10.228 3.978 15.717z"/><path d="M177.953 63.225a49.68 49.68 0 0 1-5 18.897c-5.583 11.299-15.383 19.865-27.597 23.061a.12.12 0 0 1-.066.013c-3.073.802-6.228 1.251-9.402 1.339h-.265c-.332.013-.663.013-.995.013-.225 0-.451 0-.676-.013-23.66-.365-42.648-19.649-42.648-43.311v-.477a30.03 30.03 0 0 1 1.194-8.169c0-.013.013-.026.013-.04a28.31 28.31 0 0 1 7.546-12.108c8.686-8.593 22.438-13.991 34.572-22.531 26.576-18.698 46.096-.093 43.325 43.325z"/></g><path d="M172.954 82.122c-5.583 11.299-15.383 19.865-27.597 23.061a.12.12 0 0 1-.066.013c-3.065.761-6.205 1.179-9.362 1.247h-.305q-.835.02-1.671 0c-23.726-.592-42.573-20.137-42.303-43.868.04-2.686.324-5.362.849-7.997 0-.013.013-.026.013-.04a28.31 28.31 0 0 1 7.546-12.108c-2.38 11.351-.109 23.182 6.304 32.845s16.433 16.352 27.817 18.569l1.233.225c1.193.199 2.387.345 3.594.438a43.27 43.27 0 0 0 33.949-12.386z" opacity=".2"/><path fill="#3f3d56" d="M136.097 133.582l6.541-3.443-.998-1.896-5.587 2.941-.42-24.128v-.003l-.01-.511v-.091l-.217-12.378-.304-17.445-.233-13.404h-.122l-.228 12.372v.003l-.336 18.251-.232 12.593-.001.105-.067 3.593-1.326 72.075-.009.476 4.425 1.242-.008-.48-.868-49.872z"/><path d="M293.924 218.934c-27.502-5.511-55.091-10.509-83.016-13.569a453.24 453.24 0 0 0-79.792-2.307c-24.035 1.621-48.276 5.423-70.855 14.089-17.399 6.678-35.946 16.782-45.344 33.633-9.06 16.243-5.526 34.975 4.339 49.962 11.869 18.032 30.378 30.389 49.621 39.42 21.91 10.283 45.344 16.948 68.809 22.617 11.9 2.875 23.865 5.474 35.831 8.06 2.496.539 3.563-3.295 1.058-3.836-24.13-5.214-48.331-10.445-71.862-17.993-21.776-6.985-44.06-15.933-61.892-30.599-14.426-11.866-28.143-29.197-27.291-48.902.858-19.865 17.525-33.734 33.861-42.271 20.415-10.669 43.61-15.866 66.337-18.582 26.024-2.9 52.268-3.257 78.361-1.066 34.873 2.653 69.23 8.809 103.455 15.703"/><path d="M164.811 250.57c11.573 5.785 18.619 13.424 18.619 21.804 0 18.051-32.664 32.685-72.957 32.685-17.518 0-33.59-2.768-46.166-7.379 13.358 6.677 32.748 10.881 54.337 10.881 40.293 0 72.957-14.633 72.957-32.685 0-10.203-10.44-19.312-26.79-25.306zm25.743 12.399c13.059 6.527 21.01 15.148 21.01 24.603 0 20.369-36.858 36.881-82.323 36.881-19.767 0-37.902-3.124-52.093-8.326 15.073 7.534 36.953 12.278 61.313 12.278 45.466 0 82.323-16.512 82.323-36.881 0-11.513-11.781-21.791-30.23-28.555zm-35.595-6.937c8.154 4.075 13.118 9.458 13.118 15.361 0 12.718-23.013 23.027-51.4 23.027a96.52 96.52 0 0 1-32.525-5.199c9.411 4.704 23.072 7.666 38.282 7.666 28.387 0 51.4-10.31 51.4-23.027 0-7.188-7.356-13.606-18.875-17.829z" fill="#f1f1f1"/><g fill="#3f3d56"><path d="M111.54 280.386c-16.767 0-24.92-4.6-28.808-8.458-1.451-1.448-1.885-3.629-1.1-5.522s2.634-3.128 4.684-3.126h58.493a3.83 3.83 0 0 1 2.371 6.838c-5.958 4.684-16.978 10.268-35.639 10.268zm12.146-58.864c-4.56-3.464-10.283-5.03-15.972-4.369 10.099 2.493 2.13 16.45 11.326 30.924 5.012 7.888-4.735 11.755-14.02 12.814 10.243 2.473 20.817-2.578 25.331-12.099a22.26 22.26 0 0 0-6.665-27.27z"/><path d="M111.182 214.246h2.154v51.264h-2.154z"/></g><path d="M320.593 228.634c-11.552-8.136-25.863-11.349-39.785-8.933s-26.313 10.263-34.448 21.816c-16.941 24.056-33.941 87.138-21.941 123.682 35.793-37.807 90.781-41.735 109.057-62.332 19.529-22.008 11.174-57.292-12.883-74.233z" fill="#17173b"/><circle cx="289.193" cy="265.733" r="17.375" fill="#fff"/><circle cx="209.731" cy="372.741" r="11.38" fill="#17173b"/><path d="M307.782 261.724c4.838 8.287 2.043 18.926-6.244 23.765s-18.926 2.043-23.765-6.244c6.406 5.62 15.942 5.763 22.514.339s8.24-14.814 3.938-22.17c1.41 1.235 2.611 2.69 3.556 4.309zm25.727 41.225c-18.276 20.596-73.264 24.525-109.057 62.332a73.77 73.77 0 0 1-2.573-10.578c35.775-34.37 87.702-38.714 105.36-58.613 15.804-17.811 13.344-44.315-.919-62.757 19.562 18.133 25.085 49.447 7.189 69.616z" opacity=".2" fill="#231f20"/><path fill="#ffb6b6" d="M520.879 617.234H507.91l-6.17-50.025h19.142l-.003 50.025z"/><path d="M524.187 629.806l-41.819-.002v-.529a16.28 16.28 0 0 1 16.277-16.277h.001l7.639-5.795L520.537 613h3.651z" fill="#2f2e41"/><path fill="#ffb6b6" d="M470.62 609.061l-12.651 2.857-17.038-47.438 18.672-4.215 11.017 48.796z"/><path d="M476.616 620.596l-40.792 9.21-.117-.516a16.28 16.28 0 0 1 12.292-19.462H448l6.175-7.335 15.179 2.514 3.561-.804zm60.69-309.189c6.081 18.339 5.438 38.246-1.462 59.612l-2.949 120.293c4.876 5.366 7.936 27.246.425 42.913-10.03 20.921-3.12 49.853-10.21 63.732h-20.565l-5.054-56.508-4.451-6.372-.677-50.969c-2.731-6.467-5.896-12.88-.341-20.372l-.148-8.853-.79-47.191-31.014 45.351c-.881 10.264-6.128 15.642-13.074 19.118l9.605 42.392c16.799 14.379 12.69 36.632 12.968 57.233l5.508 24.309-25.31 2.263-11.169-32.967-12.558-20.315-21.841-81.216 15.231-35.351 6.225-14.448 34.765-80.687z" fill="#2f2e41"/><path d="M322.444 246.001a9.8 9.8 0 0 0 14.968-1.337l33.527 9.424-5.503-17.241-30.994-6.306c-4.278-2.575-9.805-1.543-12.866 2.401s-2.688 9.555.868 13.059z" fill="#ffb8b8"/><path d="M349.865 232.077l32.725-.24h0a54.71 54.71 0 0 1 27.057-.613l1.737.402 13.657-1.549c8.142-16.275 23.25-30.99 43.531-44.545 6.186-4.986 14.209-7.088 22.046-5.777s14.738 5.91 18.965 12.638h0c7.832 12.501 4.557 28.94-7.468 37.485l-61.8 36.335a36.23 36.23 0 0 1-17.871 4.995h0l-.15.078-35.253-13.208-18.135-2.308-24.59-7.147z" fill="#17173b"/><circle cx="481.158" cy="124.835" r="30.876" fill="#ffb8b8"/><path d="M509.993 144.417c2.288-3.265 3.911-8.495 4.87-12.317 2.594-10.178.749-20.979-5.077-29.719-1.063-1.761-2.587-3.199-4.407-4.159-1.868-.834-4.331-.635-5.634.943a10.13 10.13 0 0 0-3.219-7.378c-2.041-1.879-4.491-3.256-7.157-4.023a29.74 29.74 0 0 0-29.603 7.319c-1.49 1.516-.958-6.059-2.613-4.725a8.23 8.23 0 0 1-5.851 2.087c-2.114-.225-6.001 7.307-6.024 5.182-2.224 2.228-3.203 11.625-2.508 14.696s11.044 1.713 14.011 2.766c1.965.697 4.1.721 6.136 1.174a15.3 15.3 0 0 1 11.337 16.824c1.302-1.751 2.879-3.28 4.668-4.528a6.86 6.86 0 0 1 6.23-.778c1.871 1.004 3.245 2.735 3.797 4.784.674 1.985.935 4.093 1.621 6.073 2.014 5.812 3.053 11.914 8.667 13.292 4.43 1.088 7.63-3.054 10.755-7.512z" fill="#2f2e41"/><path d="M539.94 305.286l-3.39-6.78c-4.15-25.71-8.25-49.69-2.68-71.26.35-18.83-5.47-36.52-21.63-46.18l-7.29-4.36-3.69-9.36-33.98.83-.1 12.27-12.17 19.41v.08l.76 105.62 3.36 10.9-5.07 12.68 2.69 8.09 66.99-10.71 7.79-1.25a13.92 13.92 0 0 0 2.59-1.13 14.23 14.23 0 0 0 6.22-6.95c.07-.17.13-.33.19-.5.525-1.377.829-2.828.9-4.3.122-2.455-.391-4.901-1.49-7.1z" fill="#17173b"/><path d="M541.43 312.387c-.071 1.472-.375 2.923-.9 4.3l-6.41 7.45a13.92 13.92 0 0 1-2.59 1.13l-7.79 1.25 11.27-21.19-24.77-54.23z" opacity=".2"/><path d="M568.391 375.111c-2.518-1.717-4.146-4.46-4.446-7.493s.758-6.042 2.89-8.219l-16.304-32.757 18.875 2.298 12.589 30.754c3.497 3.91 3.516 9.818.045 13.751s-9.335 4.649-13.649 1.665z" fill="#ffb8b8"/><path d="M502.297 262.402l12.368-1.708s1.194 18.647 7.11 21.473 3.922 3.291 4.619 6.283 3.855 7.512 8.541 9.574 26.003 53.896 26.003 53.896l17.949-4.186c-1.661-4.5-2.754-9.19-3.256-13.961-.631-7.213-8.805-24.232-11.497-26.758s-1.628-6.98-3.023-12.963-.427-.435-2.752-10.407-28.469-69.733-29.564-78.94-13.925-14.627-13.925-14.627l-9.972 2.325z" fill="#17173b"/><path d="M296.891 631.176h389.281c.689 0 1.247-.558 1.247-1.247s-.558-1.247-1.247-1.247H296.891c-.689 0-1.247.558-1.247 1.247s.558 1.247 1.247 1.247h0z" fill="#ccc"/></svg>