<svg xmlns="http://www.w3.org/2000/svg" width="862.703" height="644.786" xmlns:v="https://vecta.io/nano"><style><![CDATA[.B{fill:#2f2e41}.C{fill:#e6e6e6}.D{fill:#fff}.E{fill:#9e616a}.F{fill:#3f3d56}.G{fill:#ffb8b8}]]></style><path d="M629.943 612.644h-17.166l-8.169-66.209h25.335v66.209z" class="E"/><path d="M639.003 642.385h-12.31l-2.197-11.622-5.628 11.622h-32.649a7.34 7.34 0 0 1-4.17-13.379L608.121 611v-11.75l27.424 1.637z" class="B"/><path d="M731.923 590.981l-13.775 10.243-46.063-48.255 20.33-15.118 39.508 53.13z" class="E"/><g class="B"><path d="M756.94 609.441l-9.878 7.346-8.698-8.015 2.419 12.684-26.199 19.482a7.34 7.34 0 0 1-11.33-8.247l10.177-30.007-7.011-9.428 22.983-15.051zM649.927 271.04s32.569 28.138 17.542 108.352l-18.345 78.597 59.829 99.256-19.077 23.208-77.78-107.433-28.185-66.114-7.909-117.669z"/><path d="M599.447 425.746l-1.959 30.338 5.995 129.281 28.209-4.913 5.391-92.046-37.636-62.66z"/></g><path fill="#ffb6b6" d="M237.445 628.211l15.351-.001 7.302-59.209-22.655.001.002 59.209z"/><path d="M233.53 623.199h4.321l16.869-6.86 9.041 6.859h.001a19.27 19.27 0 0 1 19.265 19.265v.626l-49.497.002z" class="B"/><path fill="#ffb6b6" d="M296.932 618.538l14.973 3.38 20.166-56.146-22.099-4.99-13.04 57.756z"/><path d="M294.216 612.786l4.215.952 17.966-2.976 7.308 8.682h.001a19.27 19.27 0 0 1 14.549 23.036l-.138.611-48.281-10.901zm-76.213-346.55c-7.197 21.706-6.436 45.268 1.73 70.556l3.491 142.378s-5.201 93.369 11.582 126.224h24.34l12.051-134.751 1.513-90.446 52.182 76.306-33.237 146.688 29.957 2.678 53.934-159.191-66.544-154.443z" class="B"/><path d="M498.698 204.408c18.617-16.777 46.309-25.212 69.537-15.805-23.827 13.229-42.207 34.459-51.888 59.935-3.698 9.838-6.786 21.166-15.882 26.433-5.659 3.278-12.7 3.438-19.046 1.856s-12.162-4.754-17.899-7.894l-1.632-.037c7.328-23.966 18.192-47.711 36.81-64.488z" class="C"/><g class="D"><path d="M568.105 189.112a98.69 98.69 0 0 0-54.906 25.931 42.5 42.5 0 0 0-8.345 10.377c-2.04 3.845-3.013 8.167-2.818 12.516.101 4.058.673 8.198-.214 12.21-.981 4.14-3.682 7.665-7.425 9.689-4.546 2.613-9.76 3.437-14.886 4.065-5.692.698-11.615 1.332-16.542 4.525-.597.387-1.162-.562-.566-.948 8.572-5.555 19.42-3.534 28.637-7.241 4.301-1.73 8.107-4.766 9.454-9.357 1.178-4.015.591-8.284.454-12.392a26.01 26.01 0 0 1 2.299-12.34 39.29 39.29 0 0 1 7.916-10.659 95.75 95.75 0 0 1 24.333-17.42c10.213-5.187 21.239-8.589 32.6-10.059.703-.091.709 1.015.01 1.105z"/><path d="M517.799 210.184a14.81 14.81 0 0 1 1.632-19.104c.506-.499 1.305.265.798.764-4.806 4.75-5.435 12.293-1.482 17.774.415.577-.536 1.14-.948.566zm-16.085 25.7a28.54 28.54 0 0 0 20.394-4.083c.598-.385 1.164.564.566.948a29.68 29.68 0 0 1-21.23 4.206c-.701-.126-.427-1.197.27-1.071zm44.084-41.543a8.38 8.38 0 0 0 6.269 4.894c.702.117.427 1.188-.27 1.071a9.39 9.39 0 0 1-6.947-5.399.57.57 0 0 1 .191-.757c.262-.155.6-.069.757.191z"/></g><path d="M593.813 269.508l-1.328-.176a110.38 110.38 0 0 0-17.882-.908l-1.392.041c-14.392.592-28.548 3.85-41.75 9.61-5.251 2.297-10.32 4.99-15.163 8.056-6.688 4.234-13.602 9.358-21.078 11.085-.778.189-1.567.329-2.362.421l-30.889-26.745c-.04-.096-.086-.185-.126-.282l-1.282-1.011.729-.528c.138-.102.283-.199.421-.301.094-.066.189-.133.27-.198.031-.022.063-.044.088-.059.081-.065.164-.117.239-.176q2.103-1.49 4.235-2.955c.006-.007.006-.007.019-.008 10.758-7.546 22.372-13.79 34.601-18.599.367-.139.739-.285 1.12-.411a107.83 107.83 0 0 1 16.939-4.767 95.33 95.33 0 0 1 9.553-1.334 79.27 79.27 0 0 1 24.723 1.752c16.143 3.743 30.91 12.608 39.656 26.433l.658 1.063z" class="C"/><g class="D"><path d="M593.404 269.839a98.69 98.69 0 0 0-59.452-12.353 42.5 42.5 0 0 0-12.911 3.261c-3.944 1.842-7.323 4.707-9.785 8.297-2.363 3.301-4.398 6.951-7.522 9.62-3.276 2.715-7.555 3.903-11.761 3.266-5.203-.651-9.862-3.132-14.333-5.717-4.965-2.87-10.076-5.93-15.932-6.347-.71-.051-.59-1.149.119-1.098 10.189.726 17.633 8.871 27.225 11.46 4.476 1.208 9.343 1.075 13.182-1.779 3.358-2.496 5.459-6.258 7.823-9.621a26.01 26.01 0 0 1 9.265-8.469 39.29 39.29 0 0 1 12.738-3.745 95.75 95.75 0 0 1 29.917.742c11.278 2.007 22.13 5.929 32.085 11.596.616.351-.045 1.237-.657.888z"/><path d="M540.551 256.376a14.81 14.81 0 0 1 12.805-14.271c.705-.093.883.997.177 1.091-6.697.899-11.741 6.543-11.884 13.299-.016.711-1.114.588-1.098-.119zm-28.317 10.836a28.54 28.54 0 0 0 18.742 9.018c.709.053.59 1.151-.119 1.098-7.449-.577-14.406-3.943-19.484-9.424-.484-.523.38-1.212.861-.692zm60.211-6.628a8.38 8.38 0 0 0 2.058 7.682c.49.516-.374 1.205-.861.692a9.39 9.39 0 0 1-2.296-8.493.57.57 0 0 1 .609-.49c.302.034.521.306.49.608z"/></g><path d="M51.273 627.136c-1.45 5.44-5.26 9.97-9.86 13.27-.75.54-1.52 1.04-2.3 1.51-.24.14-.48.29-.73.42q-.405.24-.81.45h-21.63l-1.15-2.38c-9.27-19.48-15.78-40.5-14.67-61.91.44-8.305 2.185-16.488 5.17-24.25 5.94-15.47 16.78-28.86 31.69-35.6a39.21 39.21 0 0 1 1.14-.5l-.36 1.28c-1.6 5.762-2.73 11.645-3.38 17.59a31.09 31.09 0 0 0-.15 1.39c-1.421 14.338-.159 28.814 3.72 42.69.01.03.02.07.03.1q1.275 4.605 2.96 9.07a107.97 107.97 0 0 0 2.87 6.95c4.34 9.57 10.16 19.77 7.46 29.92z" class="C"/><g class="D"><path d="M38.393 518.596l-.63.83a98.13 98.13 0 0 0-11.12 18.76 12.64 12.64 0 0 0-.44 1c-4.108 9.282-6.746 19.147-7.82 29.24a1.49 1.49 0 0 0-.02.21c-.25 2.36-.4 4.74-.46 7.12a42.48 42.48 0 0 0 1.43 13.24 23.77 23.77 0 0 0 5.46 9.42c.25.27.5.54.77.8a18.42 18.42 0 0 0 .63.62c2.02 1.93 4.23 3.72 6.13 5.79a21.43 21.43 0 0 1 2.35 3c2.236 3.62 2.818 8.023 1.6 12.1-1.36 5.06-4.47 9.33-7.65 13.4-1.59 2.04-3.23 4.1-4.65 6.28-.52.78-1 1.57-1.44 2.38h-1.26a29.96 29.96 0 0 1 1.38-2.38c3.65-5.75 8.84-10.69 11.53-17.02 1.82-4.27 2.37-9.11.07-13.3a17.68 17.68 0 0 0-2.43-3.38c-1.83-2.07-4.02-3.84-6.01-5.71-.5-.47-.99-.95-1.46-1.45-2.492-2.532-4.415-5.566-5.64-8.9a39.23 39.23 0 0 1-1.94-13.13c0-2.84.15-5.7.43-8.54.03-.36.07-.73.11-1.1 2.045-17.872 8.837-34.87 19.67-49.23.2-.28.41-.55.62-.82.43-.56 1.22.22.79.77z"/><path d="M17.717 569.071a14.81 14.81 0 0 1-12.354-14.663.55.55 0 0 1 .541-.545c.298-.006.547.224.564.521-.04 6.757 4.849 12.536 11.52 13.616.701.114.427 1.185-.27 1.071zm6.799 29.546a28.54 28.54 0 0 0 11.533-17.308c.151-.695 1.222-.424 1.071.27-1.606 7.297-5.905 13.719-12.038 17.986-.585.406-1.148-.544-.566-.948zm1.796-60.548a8.38 8.38 0 0 0 7.893-.972c.579-.414 1.142.538.566.948a9.39 9.39 0 0 1-8.73 1.094.57.57 0 0 1-.4-.671c.076-.295.375-.473.671-.4z"/></g><path d="M113.413 557.266l-1.06.82a110.36 110.36 0 0 0-13.29 12 45.34 45.34 0 0 0-.95 1.01l-.01.01c-9.716 10.547-17.398 22.8-22.66 36.14l-.03.09c-.01.03-.02.05-.03.08-2.086 5.34-3.767 10.828-5.03 16.42-1.22 5.46-2.22 11.31-4.13 16.57a35.74 35.74 0 0 1-.95 2.38h-44.46l.47-2.38a160.3 160.3 0 0 1 10.54-33.7c.16-.36.32-.72.5-1.08 2.449-5.342 5.328-10.475 8.61-15.35 1.812-2.67 3.748-5.236 5.81-7.7a79.12 79.12 0 0 1 18.72-16.24c.04-.03.09-.05.13-.08 14.04-8.71 30.68-12.86 46.59-9.27h.01l1.22.28z" class="C"/><g class="D"><path d="M113.363 557.796l-1.01.29a98.59 98.59 0 0 0-20.17 8.27l-.96.53c-8.84 4.934-16.865 11.205-23.79 18.59-.005.005-.009.012-.01.02-.08.08-.17.17-.24.25a90.03 90.03 0 0 0-4.6 5.35 42.77 42.77 0 0 0-6.82 11.43c-1.271 3.453-1.719 7.154-1.31 10.81.03.37.08.73.13 1.1l.13.88c.66 4.01 1.8 8.03 1.48 12.12a14.91 14.91 0 0 1-6.01 10.63c-1.152.891-2.384 1.674-3.68 2.34a36.85 36.85 0 0 1-5.77 2.38h-3.93l1.58-.45a48.21 48.21 0 0 0 5.53-1.93 26.91 26.91 0 0 0 3-1.48c4.02-2.31 7.37-5.85 8.07-10.58.61-4.14-.57-8.28-1.27-12.33-.12-.7-.23-1.39-.29-2.08a24.44 24.44 0 0 1 .85-10.46 39.06 39.06 0 0 1 6.36-11.66c1.714-2.276 3.543-4.462 5.48-6.55q.36-.405.75-.81a100.9 100.9 0 0 1 24.21-18.73h.01a99.29 99.29 0 0 1 21.1-8.74h.01l1-.29c.69-.18.85.91.17 1.1z"/><path d="M66.468 585.645a14.81 14.81 0 0 1-1.036-19.146c.432-.564 1.329.081.896.646-4.1 5.371-3.676 12.929 1 17.807.491.514-.372 1.203-.861.692zM54.107 613.33a28.54 28.54 0 0 0 19.629-6.876c.539-.464 1.231.397.692.861-5.676 4.859-12.975 7.399-20.441 7.113-.712-.028-.589-1.126.119-1.098zm37.889-47.263a8.38 8.38 0 0 0 6.887 3.977c.712.019.588 1.117-.119 1.098a9.39 9.39 0 0 1-7.629-4.382.57.57 0 0 1 .084-.776c.238-.19.584-.152.776.084z"/></g><path d="M456.382 173.13a11.6 11.6 0 0 1-17.767.838l-37.8 16.44 3.682-21.102 35.331-12.377c4.602-3.707 11.249-3.386 15.473.748s4.688 10.772 1.081 15.453z" class="G"/><path d="M431.157 179.718l-87.798 39.108-.188-.067L243.104 183.1c-15.474-8.087-21.957-26.838-14.782-42.756h0c3.875-8.569 11.229-15.071 20.207-17.868s18.724-1.621 26.78 3.231l74.469 44.859 72.211-9.359z" class="C"/><path d="M862.703 643.596c.001.316-.124.619-.348.842s-.527.348-.842.348H1.223a1.19 1.19 0 1 1 0-2.38h860.29c.316-.001.619.124.842.348s.348.527.348.842z" fill="#ccc"/><path d="M313.344 296.796l-88.506-14.157c-4.697-1.505-8.503-4.987-10.417-9.533s-1.746-9.702.461-14.113l4.014-8.028-1.559-84.347c-.382-22.33 11.183-43.167 30.336-54.654l8.631-5.161 4.362-11.077 40.22.981.117 14.527 14.404 22.968v.095l-.904 125.014-3.97 12.901 6.002 15.006z" class="C"/><circle cx="284.459" cy="45.41" r="36.544" class="G"/><path d="M246.405 53.376c-1.09-4.592-.59-11.053.026-15.677 1.615-12.121 8.346-23.645 18.573-30.47a13.38 13.38 0 0 1 6.665-2.648c2.419-.101 5.042 1.194 5.785 3.499 1.232-3.075 3.681-5.503 6.766-6.709 3.066-1.175 6.363-1.619 9.631-1.297a35.2 35.2 0 0 1 29.363 20.989c.976 2.319 3.702-6.246 4.939-4.055a9.74 9.74 0 0 0 5.524 4.853c2.423.676 3.408 10.66 4.361 8.332a11.1 11.1 0 0 1-10.611 15.475c-2.466-.092-4.825-.999-7.262-1.39-8.715-1.396-17.96 4.923-19.823 13.551-.667-2.495-1.733-4.866-3.156-7.021a8.12 8.12 0 0 0-6.513-3.579c-2.48.093-4.659 1.714-6.268 3.603s-2.817 4.093-4.438 5.972c-4.755 5.513-11.187 18.37-17.965 17.432-5.348-.74-14.11-14.59-15.598-20.859z" class="B"/><path d="M505.364 214.541c.528-3.44-1.503-6.759-4.807-7.854l-98.413-32.777a7.13 7.13 0 0 0-2.933-.337l-24.667 2.333-14.154 1.343-26.119 2.468c-3.243.31-5.868 2.773-6.384 5.99l-13.261 82.838c-.517 3.328 1.347 6.569 4.484 7.796l99.44 38.384c.467.181.952.311 1.446.388.72.117 1.454.122 2.176.016l64.255-9.523a7.12 7.12 0 0 0 6.023-5.999z" class="D"/><path d="M321.365 270.503l99.44 38.382c.145.057.303.076.457.054l64.247-9.522c.391-.054.7-.36.755-.752l12.92-85.067c.061-.428-.191-.84-.599-.982l-.662-.224-97.758-32.546a.68.68 0 0 0-.137-.033c-.076-.014-.153-.018-.23-.012l-60.164 5.693-4.774.448c-.403.043-.727.349-.795.748l-13.259 82.834c-.067.417.166.824.56.978z" class="F"/><path d="M339.634 185.495l60.164-5.693c.077-.006.154-.002.23.012a.68.68 0 0 1 .137.033l97.758 32.546-25.787 2.73-9.65 1.017-27.46 2.901a1.94 1.94 0 0 1-.241-.003l-.156-.045z" class="B"/><g class="F"><path d="M319.109 276.345l99.44 38.382a6.72 6.72 0 0 0 1.45.38c.72.119 1.454.128 2.177.027l64.247-9.522c3.113-.453 5.562-2.892 6.028-6.004l12.91-85.068a7.19 7.19 0 0 0-.418-3.717l-.207-.462a6.99 6.99 0 0 0-2.264-2.698 7.14 7.14 0 0 0-1.916-.977l-.117-.041-98.292-32.738c-.402-.128-.812-.228-1.227-.298-.568-.08-1.144-.092-1.715-.033l-24.663 2.325-14.153 1.35-26.123 2.466a7.09 7.09 0 0 0-3.019.997 1.33 1.33 0 0 0-.202.121 1.19 1.19 0 0 0-.13.098 7.15 7.15 0 0 0-3.027 4.764l-13.27 82.843c-.517 3.331 1.349 6.574 4.488 7.802zm10.542-90.357a5.3 5.3 0 0 1 1.27-2.671 4.65 4.65 0 0 1 .676-.659c.675-.545 1.472-.918 2.324-1.084a4.06 4.06 0 0 1 .509-.072l43.985-4.155 20.965-1.995c.142-.017.273-.014.404-.022.317-.007.635.017.948.07.288.037.571.105.845.201l98.408 32.779.223.082a5.22 5.22 0 0 1 2.273 1.654 5.26 5.26 0 0 1 1.121 4.145l-12.921 85.077a5.35 5.35 0 0 1-4.509 4.502l-64.257 9.521c-.919.132-1.857.025-2.723-.31l-99.441-38.372c-2.348-.925-3.742-3.352-3.359-5.846z"/><path d="M330.704 181.387c.053-.151.145-.284.268-.386a1.05 1.05 0 0 1 .129-.088c.042-.016.084-.042.126-.058.2-.08.422-.084.624-.011l2.07.73 101.116 35.669 23.665-2.5 13.243-1.397 28.029-2.967 2.506-.263.487-.054c.433-.04.833.235.952.654a.74.74 0 0 1 .026.143c.042.396-.182.771-.55.922a.99.99 0 0 1-.248.067l-3.409.357-27.603 2.918-9.65 1.017-27.46 2.901a1.94 1.94 0 0 1-.241-.003l-.156-.045-103.031-36.335-.35-.124a.67.67 0 0 1-.219-.121.91.91 0 0 1-.324-1.025z"/><path d="M420.271 315.368c-.484-.078-.816-.531-.743-1.016l14.517-96.334c.074-.488.529-.824 1.017-.751l.008.001c.484.078.816.531.743 1.016l-14.517 96.334c-.074.488-.529.824-1.017.751zm36.797-6.112l-9.655 1.019 11.293-95.535s12.895-2.335 13.24-1.398c.212.559-14.786 95.302-14.878 95.914z"/><path d="M331.25 182.533l-.26 43.567 77.126 29.388 27.697-37.204-104.563-35.751zm171.233 27.585a5.3 5.3 0 0 0-2.497-1.737l-98.406-32.778c-.276-.093-.56-.162-.848-.207a5.01 5.01 0 0 0-.951-.071l.16-.997.985-.713 23.368-16.919 78.041 23.917.135 27.052z"/></g><path d="M335.181 252.473c.111.011.22.034.326.068l30.194 9.917a1.5 1.5 0 1 1-.936 2.851l-30.194-9.917a1.5 1.5 0 0 1 .61-2.919z" class="D"/><g fill="#f2f2f2"><circle cx="457.003" cy="423.236" r="12"/><circle cx="151.003" cy="467.236" r="12"/><circle cx="401.003" cy="70.236" r="12"/></g><path d="M420.692 270.121a11.6 11.6 0 0 1-15.907-7.957l-41.012-4.143 13.53-16.606 36.871 6.481c5.827-.983 11.468 2.548 13.131 8.218s-1.178 11.689-6.613 14.008z" class="G"/><path d="M395.467 263.534l-95.708-8.818-.131-.151-69.851-80.037c-9.543-14.621-6.029-34.147 8.013-44.523h0c7.57-5.579 17.165-7.656 26.364-5.705s17.126 7.742 21.78 15.914l43.022 75.544 67.565 27.147z" class="C"/><path d="M635.69 109.617c-2.377-17.434-5.358-36.152-17.654-48.737a41.35 41.35 0 0 0-59.744.618c-8.951 9.549-12.904 22.957-13.265 36.04s2.552 26.021 5.784 38.703a119.29 119.29 0 0 0 49.786-9.799c3.926-1.704 7.789-3.631 11.937-4.686s7.105 1.601 10.963 3.453l2.118-4.055c1.734 3.227 7.102 2.27 9.05-.832s1.52-7.075 1.026-10.705z" class="B"/><g class="E"><path d="M567.884 206.925l-69.876 1.494c-2.991-5.17-9.547-7.03-14.807-4.2s-7.32 9.326-4.653 14.671 9.097 7.604 14.521 5.103c9.268.527 81.772 10.817 86.097 4.185 4.39-6.731 27.824-30.486 27.824-30.486l-18.013-25.644z"/><circle cx="584.911" cy="94.035" r="32.83"/></g><path d="M637.494 157.204c-3.869-7.7-5.749-17.212-13.997-19.708-5.57-1.686-28.097.84-33.173 3.686-8.444 4.733-.792 13.602-5.773 21.902-5.415 9.023-20.132 27.13-25.547 36.152-3.723 6.203 8.817 24.409 6.804 31.358s-2.11 14.747 1.32 21.117c3.069 5.701-1.371 10.745 1.715 16.437 3.21 5.92 7.148 28.053 4.161 34.088l-2 6c19.847 1.166 36.535-22.544 56.258-25.042 4.899-.62 9.986-1.431 14.023-4.274 5.946-4.189 8.297-11.789 9.766-18.913 7.071-34.821 2.299-71.006-13.557-102.803z" class="F"/><path d="M667.25 238.505c-2.764-7.546-7.769-40.537-7.769-40.537l-31.324-.918 15.314 37.772-41.79 58.503.218.358c-4.497-.722-8.976 1.389-11.282 5.317s-1.966 8.868.855 12.443 7.547 5.053 11.903 3.723 7.45-5.196 7.793-9.738c.317.182.719.113.958-.164 4.65-5.835 57.888-59.212 55.123-66.758z" class="E"/><path d="M670.434 217.67c-2.875-12.135-5.772-24.335-10.619-35.826s-11.787-22.343-21.547-30.105c-3.12-2.482-6.609-4.672-10.521-5.444s-8.32.092-11.067 2.981c-4.396 4.624-3.073 12.045-1.461 18.218q7.132 27.301 14.263 54.601 20.594-2.183 41.188-4.366z" class="F"/><path d="M625.139 98.589c-1.209-7.942-2.472-15.95-5.312-23.429s-7.419-14.482-13.986-18.719c-10.399-6.707-23.862-5.414-35.521-1.555-9.016 2.984-17.818 7.519-24.176 14.809s-9.93 17.694-7.564 27.227q18.655-4.407 37.309-8.815l-1.361.962a30.04 30.04 0 0 1 16.031 20.893 31.12 31.12 0 0 1-6.566 25.848q12.722-4.513 25.445-9.026c5.235-1.857 10.838-3.997 13.943-8.76 3.599-5.523 2.763-12.843 1.759-19.434z" class="B"/></svg>