<svg xmlns="http://www.w3.org/2000/svg" width="819.07" height="584" xmlns:v="https://vecta.io/nano"><path d="M747.902 525.359c7.184 12.698 1.092 55.585 1.092 55.585s-39.891-16.886-47.073-29.578c-7.165-12.696-2.69-28.796 9.999-35.973s28.793-2.717 35.982 9.966z" fill="#f1f1f1"/><path d="M749.572 580.89l-.847.179c-8.162-38.778-36.666-65.075-36.952-65.336l.583-.641c.289.263 28.996 26.738 37.217 65.798z" fill="#fff"/><path d="M813.173 539.818c-9.748 17.683-64.706 41.638-64.706 41.638s-9.061-59.263.682-76.941c6.306-11.437 18.235-18.641 31.293-18.898s25.261 6.471 32.012 17.651 7.026 25.112.72 36.549z" fill="#f1f1f1"/><path d="M748.952 582.098l-.826-.869c39.769-37.769 50.064-90.445 50.164-90.973l1.178.222c-.1.531-10.458 53.577-50.516 91.62z" fill="#fff"/><path d="M192.566 405.919a75.19 75.19 0 0 1-18.64-2.411l-1.2-.332-1.113-.558c-40.242-20.177-74.192-46.827-100.907-79.211-22.115-26.965-39.356-57.58-50.949-90.47A348.21 348.21 0 0 1 .066 110.272l.031-2.019c0-20.289 11.262-38.091 28.691-45.354L171.995 4c16.48-8.258 34.062-1.365 36.876-.16l142.471 59.896c24.936 11.874 31.589 33.206 31.589 43.938 0 48.588-8.415 93.998-25.011 134.967-13.403 33.162-32.4 63.777-56.162 90.511-45.847 51.594-91.706 69.884-92.148 70.045a50.11 50.11 0 0 1-17.043 2.721zm-10.785-26.714c3.976.891 13.129 2.228 19.096.052 7.579-2.764 45.962-22.668 81.83-63.032 49.557-55.769 74.702-125.875 74.739-208.372-.089-1.671-1.275-13.592-17.062-21.109-23.726-11.298-140.104-58.885-141.276-59.365l-.322-.136c-2.439-1.022-10.201-3.175-15.551-.371l-1.071.499L38.59 86.423c-9.592 3.997-13.009 13.897-13.009 21.83l-.036 2.513c-1.096 56.447 11.966 195.346 156.236 268.439z" fill="#3f3d56"/><path d="M177.324 15.586L33.689 74.662c-13.9 5.792-20.85 19.692-20.85 33.592S2.414 303.532 177.324 391.228c0 0 15.875 4.392 27.919 0s164.945-78.526 164.945-283.553c0 0 0-20.85-24.325-32.434S203.929 15.586 203.929 15.586s-14.443-6.371-26.605 0z" fill="#aaaab1"/><path d="M191.224 57.286v284.25S60.331 278.53 61.49 112.887z" opacity=".1"/><path fill="#fff" d="M192.931 261.581l-41.696-53.612 24.248-18.859 19.743 25.384 66.695-70.406 22.303 21.131-91.293 96.362z"/><path d="M818.07 584h-381a1 1 0 1 1 0-2h381a1 1 0 1 1 0 2z" fill="#cacaca"/><path fill="#ffb8b8" d="M547.206 568.237l15.465-.001 7.358-59.653-22.826.001.003 59.653z"/><path d="M543.261 563.188l30.458-.001h.001c10.719.001 19.409 8.69 19.41 19.41v.631l-49.868.002z" fill="#2f2e41"/><path fill="#ffb8b8" d="M599.206 568.237l15.465-.001 7.358-59.653-22.826.001.003 59.653z"/><g fill="#2f2e41"><path d="M595.261 563.188l30.458-.001h.001c10.719.001 19.409 8.69 19.41 19.41v.631l-49.868.002zM571.514 358.75l3.71 189.25-30.011-1.861-20.82-120.542-6.576-82.189 53.697 15.342z"/><path d="M623.018 326.971L627.224 551l-35-1-7.56-133.17-13.15-48.217-53.696-25.204 8.767-60.271 78.9-1.096z"/></g><circle cx="562.676" cy="99.594" r="26.838" fill="#ffb8b8"/><path fill="#ccc" d="M584.936 137.738l4.111 6.228 10.959 30.683-8.767 119.446-51.505 1.097-6.574-136.981 13.773-17.216 38.003-3.257z"/><g fill="#2f2e41"><path d="M512.338 161.499l-8.767-1.096s-2.192 1.096-3.288 8.767-14.246 75.613-14.246 75.613l17.533 83.284 19.725-26.3-12.054-46.025 12.054-46.025zm111.776-1.095h6.575l16.438 88.762-15.342 69.038L616.443 293l4.383-27.396-2.191-24.108-7.671-14.247 13.15-66.845zm-45.579-60.81l-4.88-1.22s-3.66-20.739-12.199-18.299-30.498 4.88-30.498-4.88 20.739-18.299 32.938-17.079 27.779 5.267 31.718 23.178c6.314 28.713-13.026 35.965-13.026 35.965l.322-1.045c1.823-5.921.127-12.364-4.374-16.621z"/><path d="M504.668 160.403l35.067-14.246 8.219-6.027 24.656 109.036 11.506-112.324 45.477 23.561-15.342 74.517-2.192 28.492 6.575 23.013s23.013 16.438 15.342 33.971-16.438 18.629-16.438 18.629-37.259-35.067-39.45-43.834-5.479-24.108-5.479-24.108-18.629 70.134-40.546 69.038-21.917-24.108-21.917-24.108l5.479-24.108 8.767-25.204-4.383-41.642z"/></g></svg>