<svg xmlns="http://www.w3.org/2000/svg" width="816.222" height="700.597" xmlns:v="https://vecta.io/nano"><path d="M580.132 698.194a34.81 34.81 0 0 1-16.746-4.309L86.978 433.339c-16.941-9.29-23.165-30.54-13.914-47.501L274.112 18.223a35 35 0 0 1 47.502-13.914l476.408 260.546c16.941 9.29 23.166 30.54 13.914 47.501L610.888 679.972a34.77 34.77 0 0 1-20.869 16.795c-3.211.944-6.54 1.425-9.887 1.427zm-13.867-9.572c14.052 7.685 31.673 2.523 39.359-11.529l201.047-367.615c7.665-14.054 2.508-31.661-11.529-39.359L318.735 9.573c-14.052-7.685-31.673-2.523-39.359 11.529L78.329 388.717c-7.665 14.054-2.508 31.661 11.529 39.359zm23.69-118.999a32.7 32.7 0 0 1-15.683-4.017L189.11 354.963a32.47 32.47 0 0 1-12.92-44.108L296.262 91.304c4.135-7.563 11.106-13.173 19.378-15.596a32.5 32.5 0 0 1 24.73 2.676l385.163 210.644a32.5 32.5 0 0 1 12.92 44.108l-.439-.24.439.24-120.072 219.551c-5.655 10.429-16.563 16.928-28.426 16.937z" fill="#f2f2f2"/><path d="M578 698.097H35c-17.941-.02-32.48-14.559-32.5-32.5v-419c.02-17.941 14.559-32.48 32.5-32.5h543c17.941.02 32.48 14.559 32.5 32.5v419c-.02 17.941-14.559 32.48-32.5 32.5z" fill="#fff"/><path d="M578 700.597H35c-19.321-.022-34.978-15.679-35-35v-419c.022-19.321 15.679-34.978 35-35h543c19.321.022 34.978 15.679 35 35v419c-.022 19.321-15.679 34.978-35 35zm-543-483c-16.009.018-28.982 12.991-29 29v419c.018 16.009 12.991 28.982 29 29h543c16.009-.018 28.982-12.991 29-29v-419c-.018-16.009-12.991-28.982-29-29zm356.003 134.288c-12.789-.009-24.84 5.983-32.551 16.186a26.84 26.84 0 0 0-37.449 24.648h110.834c0-10.83-4.302-21.216-11.96-28.874s-18.044-11.96-28.874-11.96z" fill="#e6e6e6"/><circle cx="148.197" cy="445.96" r="65.757" fill="#dcdbea"/><path d="M533.36 581.477a31.88 31.88 0 0 1-7.36.85H87c-5.407.009-10.727-1.357-15.46-3.97l1.17-1.68 48.98-70.53 72.58-104.49 1.06-1.53 11.42-16.44c1.558-2.246 4.117-3.585 6.85-3.585s5.292 1.339 6.85 3.585l37.94 54.61v.01l22.32 32.14 53.28 76.7 80.81-115.35a8.35 8.35 0 0 1 13.68 0l51.84 73.99 2.98 4.25z" fill="#3f3d56"/><path d="M303.73 420.067c-15.778-.012-30.647 7.382-40.16 19.97-10.231-4.403-21.991-3.367-31.295 2.757s-14.906 16.514-14.909 27.653h136.743a50.38 50.38 0 0 0-50.379-50.379z" fill="#ccc"/><path d="M526 583.327H87a32.97 32.97 0 0 1-33-33v-250.24c.021-18.217 14.783-32.979 33-33h439c18.217.021 32.979 14.783 33 33v250.24a32.96 32.96 0 0 1-33 33zM87 269.087c-17.113.019-30.981 13.887-31 31v250.24a30.97 30.97 0 0 0 31 31h439c8.225.01 16.115-3.253 21.931-9.069s9.079-13.706 9.069-21.931v-250.24c-.019-17.113-13.887-30.981-31-31z" fill="#3f3d56"/></svg>