<svg xmlns="http://www.w3.org/2000/svg" data-name="Layer 1" width="884.549" height="560"><path data-name="Rectangle 246" fill="#f2f2f2" d="M.243.323h397.426V209H.243z"/><path data-name="Rectangle 264" fill="#e6e6e6" d="M0 0h397.426v24.191H0z"/><path data-name="Rectangle 247" fill="#fff" d="M9.23 34h381v164h-381z"/><circle data-name="Ellipse 194" cx="37.661" cy="12.034" r="4.002" fill="#fff"/><circle data-name="Ellipse 195" cx="52.851" cy="12.034" r="4.002" fill="#fff"/><circle data-name="Ellipse 246" cx="22.431" cy="12.034" r="4.002" fill="#fff"/><g data-name="Group 31" fill="#f2f2f2"><path data-name="Rectangle 250" d="M94.666 82.06h219.087v9.764H94.666z"/><path data-name="Rectangle 251" d="M94.666 106.47h78.115v9.764H94.666z"/><path data-name="Rectangle 252" d="M94.666 130.881h155.62v9.764H94.666z"/></g><path data-name="Rectangle 246" fill="#f2f2f2" d="M90.228 273.622H464.23V470H90.228z"/><path data-name="Rectangle 264" fill="#e6e6e6" d="M90 273.318h374.002v22.766H90z"/><path data-name="Rectangle 247" fill="#fff" d="M98.115 304h359.116v156H98.115z"/><circle data-name="Ellipse 194" cx="125.441" cy="284.643" r="3.766" fill="#fff"/><circle data-name="Ellipse 195" cx="139.736" cy="284.643" r="3.766" fill="#fff"/><circle data-name="Ellipse 246" cx="111.109" cy="284.643" r="3.766" fill="#fff"/><path data-name="Rectangle 246" fill="#e6e6e6" d="M270.271 86.062h443.631V319H270.271z"/><path data-name="Rectangle 264" fill="#3f3d56" d="M270 85.702h443.631v27.004H270z"/><path data-name="Rectangle 247" fill="#fff" d="M280.23 121h423v185h-423z"/><circle data-name="Ellipse 194" cx="312.039" cy="99.135" r="4.467" fill="#fff"/><circle data-name="Ellipse 195" cx="328.995" cy="99.135" r="4.467" fill="#fff"/><circle data-name="Ellipse 246" cx="295.039" cy="99.135" r="4.467" fill="#fff"/><g data-name="Group 31" fill="#e6e6e6"><path data-name="Rectangle 250" d="M329.785 168.636h324.331v14.455H329.785z"/><path data-name="Rectangle 251" d="M329.785 204.773h115.639v14.455H329.785z"/><path data-name="Rectangle 252" d="M329.785 240.91H560.16v14.455H329.785z"/></g><g data-name="Group 31" fill="#f2f2f2"><path data-name="Rectangle 250" d="M163.672 350.301h244.559v10.9H163.672z"/><path data-name="Rectangle 251" d="M163.672 377.55h87.196v10.9h-87.196z"/><path data-name="Rectangle 252" d="M163.672 404.799h173.712v10.9H163.672z"/></g><path fill="#fff" d="m502.342 89.215-20.851 11.551 22.237-7.842-1.386-3.709z"/><ellipse cx="665.845" cy="259.435" rx="5.817" ry="11.72" transform="rotate(-17.994 50.139 672.516)" fill="#3f3d56"/><path fill="#3f3d56" d="m509.46 82.667 13.83-4.992 2.94 8.142-13.385 9.041-3.385-12.191z"/><path d="M519.847 86.664a13.47 13.47 0 0 0 18.883 8.369l34.02 33.675 4.877-24.392-33.054-28.239a13.543 13.543 0 0 0-24.726 10.587ZM779.102 299.128a13.47 13.47 0 0 0-3.164-20.41l9.946-46.824-23.158 9.08-5.895 43.073a13.543 13.543 0 0 0 22.271 15.081ZM667.031 543.156h-16.423l-7.813-63.345 24.238.001-.002 63.344z" fill="#a0616a"/><path d="m671.219 559.076-52.953-.002v-.67a20.61 20.61 0 0 1 20.61-20.61h32.344Z" fill="#2f2e41"/><path fill="#a0616a" d="M747.403 543.156h-16.422l-7.813-63.345 24.238.001-.003 63.344z"/><path d="m751.591 559.076-52.953-.002v-.67a20.61 20.61 0 0 1 20.611-20.61h32.343ZM668.742 510.08l-23.248-.93a6.047 6.047 0 0 1-5.784-6.207l6.55-214.835.427-.154c40.744-14.74 74.45-13.625 103.046 3.402l.32.191 3.924 209.24a6.027 6.027 0 0 1-6.027 6.142h-19.603a6.041 6.041 0 0 1-5.915-4.865l-26.704-135.842a2.009 2.009 0 0 0-3.966.146l-16.796 138.415a6.062 6.062 0 0 1-5.986 5.3 7.24 7.24 0 0 1-.238-.003Z" fill="#2f2e41"/><circle cx="849.083" cy="236.804" r="32.901" transform="rotate(-28.663 437.522 460.48)" fill="#a0616a"/><path d="M545.183 99.53a6.035 6.035 0 0 1 2.443-2.64l9.922-5.697a6.048 6.048 0 0 1 6.898.628l32.966 27.929 75.772 21.244a19.419 19.419 0 1 1-16.514 35.151l-48.402-10.896a62.12 62.12 0 0 1-36.554-24l-25.957-35.578a6.035 6.035 0 0 1-1.026-4.807 5.967 5.967 0 0 1 .452-1.333ZM777.698 268.814a6.035 6.035 0 0 1-3.595.155l-11.057-2.94a6.048 6.048 0 0 1-4.455-5.303l-3.746-43.044-38.85-68.436a19.419 19.419 0 1 1 36.477-13.334l26.699 41.817a62.12 62.12 0 0 1 9.06 42.78l-6.618 43.54a6.035 6.035 0 0 1-2.656 4.136 5.968 5.968 0 0 1-1.26.629Z" fill="#3f3d56"/><path d="M655.371 125.231a56.023 56.023 0 0 1 44.925-18.163q.825.05 1.643.115h.001a55.905 55.905 0 0 1 40.4 22.298 56.746 56.746 0 0 1 10.08 45.739 177.303 177.303 0 0 0 4.684 90.922l8.826 27.406a6.026 6.026 0 0 1-5.414 7.866l-45.123 2.426-11.547-19.945v20.566l-54.842 2.948c-.11.007-.218.01-.326.01a6.028 6.028 0 0 1-6.006-6.513l6.198-76.865-7.775-52.206a56.38 56.38 0 0 1 14.276-46.604Z" fill="#3f3d56"/><path d="M714.224 98.212c-3.047 1.753-15.087 2.915-15.945-.493l-.018-.075c-.597-2.497-.101-5.104.07-7.666s-.08-5.376-1.824-7.26c-3.253-3.51-9.039-1.65-13.742-2.537a11.606 11.606 0 0 1-9.028-12.395c.067-.532.172-1.066.29-1.598a8.939 8.939 0 0 0-9.28-10.826c-4.752.272-9.882 1.712-13.815-1.808-3.04-2.722-3.783-9.809-2.447-13.665 2.246-6.481 16.63-9.874 22.91-11.74a54.413 54.413 0 0 1 46.12 7.568c3.967 2.796 7.671 6.31 9.362 10.858s.875 10.288-2.937 13.291a24.557 24.557 0 0 1 5.688 23.853c-1.884 6.067-10.87 11.884-15.404 14.493Z" fill="#2f2e41"/><path d="M883.55 560h-381a1 1 0 0 1 0-2h381a1 1 0 0 1 0 2Z" fill="#3f3d56"/></svg>